# xmcd
#
# Track frame offsets: 
#        150
#        45237
#        64815
#        90877
#        123730
#        150625
#        178232
#        208815
#        236320
#        262997
#        288647
#        313760
#
# Disc length: 4442 seconds
#
# Revision: 7
# Processed by: cddbd v1.5.2PL0 Copyright (c) Steve Scherf et al.
# Submitted via: ExactAudioCopyFreeDBPlugin 1.0
#
DISCID=a511580c
DTITLE=Isaac Hayes - The Best Of Polydor Years
DYEAR=1996
DGENRE=Soul
TTITLE0=Moonlight Lovin' (Ménage À Trois)
TTITLE1=Zeke The Freak
TTITLE2=Out Of The Ghetto
TTITLE3=Don't Let Go
TTITLE4=What Does It Take
TTITLE5=A Few More Kisses To Go
TTITLE6=Don't Let Me Be Lonely Tonight
TTITLE7=You Can't Hold Your Woman
TTITLE8=It's All In The Game
TTITLE9=Wherever You Are
TTITLE10=Lifetime Thing
TTITLE11=It's Heaven To Me
EXTD=Release date: 02/06/1996 \nOriginal release date: 1996 \nLabel: P
EXTD=olydor\nProducer: Isaac Hayes\nStudio\nPieces in Set: 1\nCatalog#
EXTD=: 529 487\nDistributor: UNI\nDesc: Performer\n-------------------
EXTD=------------------------------------------------------------\n \n
EXTD=Additional Notes: \n   \nPersonnel:Isaac Hayes (vocals, piano, el
EXTD=ectric piano, programming, concert bells, triangle, finger cymbal
EXTD=s, tambourine, vibraphone, xylophone, marimba, altosaxophone) - Ch
EXTD=arles "Skip" Pitts, Kim Palumu, Otis Williams, Michael Toles(guit
EXTD=ars) - The Atlanta Horns And Strings, The Atlanta Brass (horns, st
EXTD=rings) - Bill Purse, Cedric Lawson, Travis Biggs, Jesse Butler, Ma
EXTD=rvell Thomas, Randy Waldman (keyboards) - Willie Weeks, Derek Galb
EXTD=reith (bass) - WillieHall (drums) - Daniel Zebulon, Glenn Davis (pe
EXTD=rcussion).\n\nHot, Buttered &Soul Unlimited: Debra Carter, Diane 
EXTD=Davis, Diane Evans, Pat Lewis, Rose Williams (background vocals).
EXTD=\n\nCompilation producer: Harry Weigner.\n\nEngineers: Joe Neil, 
EXTD=Peter Mann, Ron Christopher.\n\nRecorded at Master Sound Recordin
EXTD=g, AEXTD
EXTT0=
EXTT1=
EXTT2=
EXTT3=
EXTT4=
EXTT5=
EXTT6=
EXTT7=
EXTT8=
EXTT9=
EXTT10=
EXTT11=
PLAYORDER=
